<?xml version="1.0" encoding="iso-8859-1"?>
<!-- Generator: Adobe Illustrator 19.0.0, SVG Export Plug-In . SVG Version: 6.00 Build 0)  -->
<svg version="1.1" id="Layer_1" xmlns="http://www.w3.org/2000/svg" xmlns:xlink="http://www.w3.org/1999/xlink" x="0px" y="0px"
	 viewBox="0 0 512.009 512.009" style="enable-background:new 0 0 512.009 512.009;" xml:space="preserve">
<circle style="fill:#F7B239;" cx="256.004" cy="256.004" r="256.004"/>
<path style="fill:#E09B2D;" d="M121.499,390.501C29.407,298.407,22.15,153.608,99.723,53.204
	c-8.593,6.638-16.861,13.895-24.743,21.777c-99.974,99.974-99.974,262.065,0,362.038s262.065,99.974,362.038,0
	c7.881-7.881,15.138-16.15,21.777-24.743C358.392,489.85,213.593,482.593,121.499,390.501z"/>
<g>
	<circle style="fill:#F95428;" cx="94.811" cy="337.468" r="25.013"/>
	<circle style="fill:#F95428;" cx="417.185" cy="337.468" r="25.013"/>
</g>
<g>
	<circle style="fill:#FFFFFF;" cx="126.958" cy="236.104" r="60.725"/>
	<circle style="fill:#FFFFFF;" cx="385.038" cy="236.104" r="60.725"/>
</g>
<path style="fill:#E09B2D;" d="M285.25,389.467h-58.5c-5.24,0-9.489-4.248-9.489-9.489c0-5.24,4.248-9.489,9.489-9.489h58.5
	c5.24,0,9.489,4.248,9.489,9.489C294.738,385.219,290.49,389.467,285.25,389.467z"/>
<g>
	<path style="fill:#4D4D4D;" d="M320.52,334.435H191.48c-5.24,0-9.489,4.248-9.489,9.489c0,5.24,4.248,9.489,9.489,9.489h129.04
		c5.24,0,9.489-4.248,9.489-9.489C330.009,338.684,325.76,334.435,320.52,334.435z"/>
	<circle style="fill:#4D4D4D;" cx="126.958" cy="236.104" r="20.776"/>
	<circle style="fill:#4D4D4D;" cx="385.038" cy="236.104" r="20.776"/>
</g>
<g>
</g>
<g>
</g>
<g>
</g>
<g>
</g>
<g>
</g>
<g>
</g>
<g>
</g>
<g>
</g>
<g>
</g>
<g>
</g>
<g>
</g>
<g>
</g>
<g>
</g>
<g>
</g>
<g>
</g>
</svg>
